<?xml version="1.0" encoding="UTF-8" standalone="no"?>
<!-- Created with Inkscape (http://www.inkscape.org/) -->

<svg
   version="1.1"
   id="svg1"
   width="204.16"
   height="12.8"
   viewBox="0 0 204.16 12.8"
   sodipodi:docname="okraj-horni.svg"
   inkscape:version="1.3.1 (91b66b0783, 2023-11-16)"
   xmlns:inkscape="http://www.inkscape.org/namespaces/inkscape"
   xmlns:sodipodi="http://sodipodi.sourceforge.net/DTD/sodipodi-0.dtd"
   xmlns="http://www.w3.org/2000/svg"
   xmlns:svg="http://www.w3.org/2000/svg">
  <defs
     id="defs1" />
  <sodipodi:namedview
     id="namedview1"
     pagecolor="#ffffff"
     bordercolor="#000000"
     borderopacity="0.25"
     inkscape:showpageshadow="2"
     inkscape:pageopacity="0.0"
     inkscape:pagecheckerboard="0"
     inkscape:deskcolor="#d1d1d1"
     inkscape:zoom="4.1046238"
     inkscape:cx="153.12"
     inkscape:cy="6.4561338"
     inkscape:window-width="1366"
     inkscape:window-height="715"
     inkscape:window-x="-8"
     inkscape:window-y="-8"
     inkscape:window-maximized="1"
     inkscape:current-layer="g1" />
  <g
     inkscape:groupmode="layer"
     inkscape:label="Image"
     id="g1">
    <path
       style="fill:#f4d0d0;fill-opacity:1"
       d="M 0,5.66 V -0.1 h 102.08 102.08 v 5.625426 5.625426 l -0.88,-0.174925 c -3.54925,-0.705513 -6.95286,-0.956993 -11.76,-0.868901 -0.352,0.0064 -1.36,-0.07549 -2.24,-0.1820939 -0.88,-0.1066024 -3.6273,-0.1805844 -6.10511,-0.1644034 -4.15031,0.0271 -4.66694,-0.03616 -6.56,-0.803288 C 174.47985,8.0920525 173.87852,8.0415908 167.36,8.1805931 164.91515,8.2327281 163.31764,8.027726 159.2,7.1334557 154.27694,6.064264 153.80306,6.019472 146.88,5.968973 c -11.50727,-0.08394 -18.07518,0.115988 -18.61838,0.5667438 -1.2223,1.0142878 -8.30569,2.7922108 -8.87123,2.2266703 -0.23661,-0.2366065 -0.55456,-0.2303728 -1.06392,0.020859 -0.39956,0.1970727 -2.02247,0.419073 -3.60647,0.493334 -1.93223,0.090587 -4.03031,0.4654866 -6.3755,1.1392199 -1.92252,0.55231 -4.01052,1.003636 -4.64,1.002946 C 101.88947,11.416746 93.40113,9.9124141 92.08904,9.3601987 91.43401,9.084519 90.426009,8.8630773 89.849038,8.868106 84.973826,8.910596 76.767814,7.2038845 72.770129,5.315981 71.697699,4.809527 69.753699,4.23494 68.450129,4.039122 67.146559,3.843304 65.363194,3.309146 64.487097,2.852104 62.962894,2.056958 62.597704,2.012263 56.019893,1.815816 52.200462,1.701748 48.571088,1.739696 47.852797,1.901206 47.141759,2.061085 46.200001,2.171244 45.760001,2.146005 44.775482,2.089535 44.96339,2.084705 39.539577,2.305824 34.838021,2.4975 28.875616,3.549523 25.6,4.76536 c -0.968,0.3593 -2.248489,0.64439 -2.845532,0.633534 -0.597042,-0.01086 -1.965042,0.328241 -3.04,0.753551 C 16.23829,7.5278051 2.0966781,11.420003 0.5757311,11.420003 0.0427464,11.420003 0,10.992339 0,5.660003 Z"
       id="path1" />
  </g>
</svg>
