<?xml version="1.0" encoding="UTF-8" standalone="no"?>
<!-- Created with Inkscape (http://www.inkscape.org/) -->

<svg
   version="1.1"
   id="svg1"
   width="640"
   height="125"
   viewBox="0 0 640 125"
   sodipodi:docname="okraj-horni-siroky.svg"
   inkscape:version="1.3.1 (91b66b0783, 2023-11-16)"
   xmlns:inkscape="http://www.inkscape.org/namespaces/inkscape"
   xmlns:sodipodi="http://sodipodi.sourceforge.net/DTD/sodipodi-0.dtd"
   xmlns="http://www.w3.org/2000/svg"
   xmlns:svg="http://www.w3.org/2000/svg">
  <defs
     id="defs1" />
  <sodipodi:namedview
     id="namedview1"
     pagecolor="#ffffff"
     bordercolor="#000000"
     borderopacity="0.25"
     inkscape:showpageshadow="2"
     inkscape:pageopacity="0.0"
     inkscape:pagecheckerboard="0"
     inkscape:deskcolor="#d1d1d1"
     inkscape:zoom="1.309375"
     inkscape:cx="320.38186"
     inkscape:cy="179.8568"
     inkscape:window-width="1366"
     inkscape:window-height="715"
     inkscape:window-x="-8"
     inkscape:window-y="-8"
     inkscape:window-maximized="1"
     inkscape:current-layer="g1" />
  <g
     inkscape:groupmode="layer"
     inkscape:label="Image"
     id="g1">
    <path
       style="fill:#f4d0d0;fill-opacity:1"
       d="M 0,61.474999 V 0 h 320 320 v 60.850659 60.850651 l -5.25,-0.86279 c -11.64546,-1.91383 -19.67532,-2.9059 -23.36335,-2.88647 -6.3797,0.0336 -10.2273,0.0479 -13.13665,0.0488 -1.5125,4.6e-4 -11.1512,-0.17914 -21.41932,-0.3991 -17.37051,-0.3721 -19.13123,-0.58472 -25.30879,-3.05613 -5.3708,-2.14866 -8.01356,-2.61133 -13.83068,-2.42135 -18.71825,0.6113 -27.29157,0.0525 -37.69121,-2.45678 -19.46816,-4.69734 -21.21261,-4.85569 -47.5,-4.31179 -13.75,0.28449 -30.43094,0.5129 -37.06875,0.50758 -10.26905,-0.008 -12.58043,0.28853 -15.5,1.99011 -4.41752,2.5746 -21.96951,7.21754 -26.74886,7.07574 -10.999,-0.32635 -21.72125,1.0649 -35.03805,4.54632 -13.30479,3.47828 -14.76884,3.67169 -20,2.64216 -3.10439,-0.61096 -10.13286,-1.83691 -15.61882,-2.72431 -5.48596,-0.88741 -11.11096,-2.06942 -12.5,-2.62668 -2.95209,-1.18433 -15.18619,-2.91029 -19.52552,-2.75461 -1.65,0.0592 -3.9,0.11799 -5,0.13066 -3.19367,0.0368 -32.72391,-7.96281 -35.73916,-9.68155 -5.15207,-2.93678 -14.07096,-5.461121 -19.29495,-5.461121 -3.33657,0 -5.65456,-0.5224 -6.42221,-1.44737 -0.66067,-0.79606 -3.30058,-2.24913 -5.86647,-3.22905 -4.03013,-1.53912 -7.72918,-1.75895 -27.17123,-1.61475 -30.74378,0.22803 -54.13172,1.12458 -62.50598,2.39611 -9.248478,1.40427 -26.794476,5.573431 -31.196453,7.412701 -1.928681,0.80585 -4.923485,1.41135 -6.65512,1.34554 C 68.916792,103.79738 62.325,105.58225 56,107.82956 45.560751,111.53868 11.211503,121.02044 3.2500002,122.39066 L 0,122.95 Z"
       id="path1" />
  </g>
</svg>
