<?xml version="1.0" encoding="UTF-8" standalone="no"?>
<!-- Created with Inkscape (http://www.inkscape.org/) -->

<svg
   version="1.1"
   id="svg1"
   width="35"
   height="35"
   viewBox="0 0 35 35"
   sodipodi:docname="prsa1.svg"
   inkscape:version="1.3.1 (91b66b0783, 2023-11-16)"
   xmlns:inkscape="http://www.inkscape.org/namespaces/inkscape"
   xmlns:sodipodi="http://sodipodi.sourceforge.net/DTD/sodipodi-0.dtd"
   xmlns="http://www.w3.org/2000/svg"
   xmlns:svg="http://www.w3.org/2000/svg">
  <defs
     id="defs1">
    <rect
       x="5.1322195"
       y="6.4152744"
       width="26.302625"
       height="7.8052505"
       id="rect2" />
  </defs>
  <sodipodi:namedview
     id="namedview1"
     pagecolor="#ffffff"
     bordercolor="#000000"
     borderopacity="0.25"
     inkscape:showpageshadow="2"
     inkscape:pageopacity="0.0"
     inkscape:pagecheckerboard="0"
     inkscape:deskcolor="#d1d1d1"
     showgrid="false"
     inkscape:zoom="9.3526787"
     inkscape:cx="17.909308"
     inkscape:cy="21.330787"
     inkscape:window-width="1366"
     inkscape:window-height="715"
     inkscape:window-x="-8"
     inkscape:window-y="-8"
     inkscape:window-maximized="1"
     inkscape:current-layer="g1" />
  <g
     inkscape:groupmode="layer"
     inkscape:label="Image"
     id="g1">
    <path
       style="fill:#000000"
       d="m 4.6029483,31.560816 c -2.322932,-0.725971 -3.95748025,-3.012353 -4.37032235,-6.113144 -0.3571947,-2.682832 0.5902774,-6.349197 2.33212935,-9.024474 0.352139,-0.540842 0.63939,-0.842482 0.802295,-0.842482 0.366851,0 0.313286,0.3367 -0.163905,1.030273 -0.650147,0.944957 -1.4668123,2.820057 -1.840911,4.226816 -0.2746385,1.032749 -0.3433894,1.6197 -0.3552546,3.032936 -0.016735,1.993301 0.1410478,2.802193 0.8019553,4.111313 0.7687483,1.52273 1.8641233,2.420834 3.3818823,2.772826 2.147129,0.497953 4.7557055,-0.572033 7.0638937,-2.897467 2.151994,-2.168073 3.482623,-4.808225 4.23422,-8.401279 0.04265,-0.203881 0.143202,-0.370692 0.223452,-0.370692 0.202022,0 0.03898,1.650285 -0.306303,3.100334 -0.293003,1.230498 -1.231755,3.339935 -2.069589,4.650502 -0.284376,0.444831 -1.069495,1.354711 -1.744709,2.021957 -1.385588,1.369237 -2.7941887,2.252263 -4.2262597,2.649364 -1.05475,0.292474 -2.912917,0.318755 -3.762574,0.05322 z M 25.997136,31.215639 c -1.818781,-0.313731 -3.647171,-1.52207 -4.741503,-3.133546 -1.379684,-2.031675 -2.402745,-5.464732 -2.402745,-8.062825 0,-0.880059 0.221751,-0.850841 0.329794,0.04345 0.308261,2.55156 0.788761,4.272754 1.715774,6.146051 0.406076,0.820595 0.815432,1.386949 1.513389,2.093808 1.062095,1.075641 1.930928,1.572306 3.368687,1.925698 0.795851,0.195615 1.066627,0.205285 1.88716,0.0674 2.324371,-0.390599 4.167021,-1.880512 5.281327,-4.270329 1.238766,-2.656738 1.089106,-5.924708 -0.405218,-8.848336 -0.411275,-0.804653 -0.71476,-1.217198 -1.066964,-1.450384 -0.73913,-0.489359 -0.640017,-0.765645 0.249178,-0.694607 0.411339,0.03286 1.096119,0.887866 1.691097,2.111476 1.838963,3.781939 1.509935,8.065114 -0.859692,11.191209 -1.098937,1.449756 -2.859665,2.548294 -4.600047,2.870021 -0.879799,0.16264 -1.074355,0.163723 -1.960237,0.01091 z m 1.407435,-3.964103 c -0.359495,-0.26287 -0.362461,-1.286547 -0.0049,-1.681679 0.592238,-0.654416 1.557333,-0.100277 1.363372,0.782823 -0.114681,0.522141 -0.564243,1.090185 -0.862795,1.090185 -0.128725,0 -0.351793,-0.0861 -0.495705,-0.191329 z M 6.6746393,26.52237 c -0.496608,-0.548745 -0.14868,-1.609765 0.606467,-1.849439 0.795622,-0.252521 1.083831,1.489267 0.32974,1.992786 -0.264792,0.176807 -0.707868,0.108966 -0.936207,-0.143347 z"
       id="path1" />
    <text
       xml:space="preserve"
       id="text2"
       style="font-style:normal;font-variant:normal;font-weight:normal;font-stretch:normal;font-size:5.33333px;font-family:Raleway;-inkscape-font-specification:'Raleway, Normal';font-variant-ligatures:normal;font-variant-caps:normal;font-variant-numeric:normal;font-variant-east-asian:normal;white-space:pre;shape-inside:url(#rect2);fill:#000000"
       transform="matrix(1.4181559,0,0,1.4181559,-5.7752005,-3.754284)"><tspan
         x="5.1328125"
         y="11.35298"
         id="tspan1">KojoRady</tspan></text>
  </g>
</svg>
